<svg xmlns="http://www.w3.org/2000/svg" width="720" height="1000" viewBox="0 2000 720 1000"><style>.sj1{fill:rgba(143,199,238,.075)}.sj2{fill:rgba(143,199,238,.07)}.k20,.k10,.k5,.vl,.ky{fill:none}.k20{stroke:rgba(244,249,252,.16);stroke-width:.8;stroke-dasharray:14 4 2 4}.k10{stroke:rgba(244,249,252,.2);stroke-width:.8;stroke-dasharray:7 4}.k5{stroke:rgba(244,249,252,.3);stroke-width:1;stroke-dasharray:1 3.2;stroke-linecap:round}.vl{stroke:rgba(244,249,252,.3);stroke-width:.8}.vl2{stroke:rgba(244,249,252,.16)}.la{fill:#2B4D69}.ls{fill:url(#s)}.ky{stroke:rgba(244,249,252,.8);stroke-width:1.15;stroke-linejoin:round}.sk{fill:none;stroke:rgba(244,249,252,.62);stroke-width:1.1;stroke-linecap:round}text{font:italic 12.5px "Iowan Old Style",Georgia,serif;fill:rgba(168,208,236,.66);text-anchor:middle}tspan{font-size:9px}</style><defs><pattern id="s" width="6" height="6" patternUnits="userSpaceOnUse" patternTransform="rotate(-38)"><path d="M0 0V6" stroke="rgba(244,249,252,.11)" stroke-width="1.1"/></pattern><path id="l" d="M699.6 1991.9q4.4-.1 8.4-.1t8-.1t8-.1t4.2 4.2t.2 8.2t0 8t0 8t0 8t0 8t0 8t0 8t0 8t0 8t0 8t-.1 8t-.1 8t.1 8t.1 8t0 8t0 8t0 8t0 8t0 8t0 8t0 8t-.1 8t-.2 8t-.1 6.4t-3.5 0t-8-4.9t-5.8-4t-2.9-5.5t-2.7-7.3t-2.7-8t-2.6-8.7t-2.4-6.1t-2.5-4t-2.7-5.9t-2.9-6.3t-2.5-4t-1-5.7t1.2-5.7t3.7-4t4-4.9t1.8-4t.3-5.4t-.5-5.5t-.7-4t-1.7-6.5t-2.9-8t-2.3-6.8t-.9-8t-.4-9.2t-.8-8t-.7-8t-.4-8t-.3-8t1.4-7.5t5-8t8-4.6zM719.4 2397.7q.6-2.3 4.6-.7t4 6.3t0 7.2t-3.4 0t-4.6-6.5t-.6-6.3zM717.4 2501.9q2.6-2.1 6.6-2.1t4 2.1t.1 6.1t.1 8t.1 8t.1 8t0 8t0 8t.1 8t.1 8t.1 8t.1 8t0 8t0 8t0 8t0 8t0 8t0 8t-.1 8t-.1 8t0 8t0 8t-.1 8t-.1 8t-.1 8t-.1 8t0 8t-.1 8t-.1 7.3t-4 3.8t-8-2.5t-6-7.8t-1.2-8.8t1.2-8t-1.7-8t-3.2-5.2t-4.1-4t-4-4.2t-2.7-4t-3.7-6.6t-3.5-8t-1.9-8t-1.3-8t-2.4-6.7t-2.2-4t-1.9-5.3t-1.4-8t.2-8t1.2-8t1.7-6.6t1.5-4t2.1-5.4t2.3-8t1.5-8t2.2-8t3-8t2.9-7.4t4-8t4-7.4t3.5-8t4-7.9t3.3-4t4-3.4zM719.2 2758.5q.8-1.5 1.3 0t.7 5.5t1 8t1.5 8t2.5 7.7t1.8 8t.1 8.3t.1 8t.1 8t.1 8t0 8t0 8t0 8t0 8t0 8t-.1 8t-.1 8t0 8t0 8t0 8t0 8t0 8t0 8t0 8t.1 8t.1 8t0 8t0 8t.1 8t.1 8t0 8t0 8t-4.3 4.3t-8.3.3t-8-.1t-8-.1t-8 0t-8-.1t-8-.2t-4.7-4.1t0-6.9t3.4-8t4-7.3t2.5-4t3.3-5.8t2.8-5.4t1.9-4t2.1-6.6t.8-8t1.9-6.7t3.3-4t3.2-5.3t2.2-8t1.5-8t1.4-8t-.7-7.2t-2.7-8t-4-8.8t-4.9-8t-3.5-8t-.2-8t.5-8t-.8-8t-1-5.6t-1-4t-2.2-6.4t-1.5-8t2.2-6.9t3.1-4t4-3.3t6.8-4t8-5.6t5.1-8t.5-8.2t1.8-8t2.7-8t1.4-5.5z"/><path id="a" d="M690.5 1991.9q5.5-.1 9.5-.1t8-.1t8-.2t8-.1t4.3 4.3t.3 8.3t0 8t0 8t0 8t0 8t0 8t0 8t0 8t-.1 8t-.1 8t0 8t0 8t.1 8t.1 8t0 8t0 8t-.1 8t0 8t.1 8t0 8t-.1 8t-.1 8t-.1 8t-.1 8t-.1 8t-.1 8t0 8t0 8t0 8t0 8t0 8t0 8t-4 4.6t-6.5-4t-4-8.4t-.9-8t2.8-8.2t3.1-8t1.2-6.7t1-8t-1.6-9.3t-4.7-5.7t-6.4-3.3t-5.9-6.3t-2.8-8.7t-2.1-6.4t-2.2-4t-3.1-5.6t-3-5.6t-3-4t-4-5.1t-2.6-4t-2.2-5.3t-2-8t.2-8t1.7-8t2-7.5t2.9-8t2.9-8.5t-.2-8t-2.8-8t-2.1-8t-.4-8t.1-8t-.3-8t-.3-8t-.2-8t-.2-8t.8-6.6t1.4-4t2.5-5.4t7.4-4.1zM723.7 2374.2q4.3-1.8 4.3 4t.1 9.8t.1 8t0 8t0 8t0 8t0 8t-.1 8t-.1 7.6t-2.3 4t-4 1t-4.7-4t-2.8-8.6t.3-8t-1.2-6.4t-4.9-4t-2.4-5.6t2.1-8t1.7-8t1.5-5.4t1.7-4t3.7-6.6t7-5.8zM723.5 2465.7q4.5 1.7 4.5 4t0 6.3t0 8t0 8t.1 8t.2 8t.1 8t0 8t.1 8t.1 8t0 8t.1 8t.1 8t0 8t.1 8t.1 8t0 8t0 8t0 8t0 8t-.1 8t-.1 8t0 8t0 8t-.1 8t-.1 8t-.1 8t-.1 8t0 8t0 8t-.1 8t-.1 8t-.1 8t-.1 8t0 8t0 8t0 8t0 8t.1 8t.1 8t0 8t0 8t.1 8t.1 8t0 8t.1 8t.1 8t0 8t0 8t0 8t-.1 8t-.1 8t0 8t0 8t0 8t0 8t0 8t0 8t0 8t0 8t0 8t.1 8t.1 8t0 8t0 8t.1 8t.1 8t0 8t-4.4 4.4t-8.4.4t-8-.1t-8-.1t-8 0t-8-.1t-8-.2t-7.1-.2t-2.9-4.1t1-8t2.6-8t4.2-8t4.3-8t3.6-8t2.1-8t-1.6-8t-2.4-8t1.2-8t3.3-8t2.7-5.9t2.6-4t3.3-6.1t.6-8t-2.8-8t-3-8t-2.9-8t-2.1-8t.5-8t.8-8t-1.7-8t-3.4-8t-3.3-8t-1.1-8t2.6-8t6.6-8t8.3-7.2t5-4t.6-4.8t-1-6.8t-.6-4.7t1.5-5.2t3.7-7.3t3-8t2.5-8t2.2-8t.4-8t-1.6-8t-2.6-5.4t-2.4-4t-2.2-6.6t0-8t1.4-8t-2.5-8t-6.9-8t-5.9-8t-3.7-8t-2.3-5.7t-1.3-4t-1.4-6.3t-1.8-8t-2.6-7.5t-2.4-8t-.9-8.5t.3-8t.9-8t1.8-8t2.6-8t2.3-8t1.4-7.6t1.4-8t1.7-8.4t2.1-8t2.3-6.5t1.9-4t2.8-5.5t3.1-7.8t3.4-8t4-7.6t5.8-7.6t4.9-8.6t1-8.4t2.6-8t7-2.3z"/></defs><use href="#a" class="sj1" fill-rule="evenodd"/><path class="sj2" fill-rule="evenodd" d="M693.3 1992q2.7 0 6.7-.1t8-.2t8-.1t8 0t4.2 4.2t.2 8.2t0 8t0 8t0 8t0 8t0 8t0 8t0 8t0 8t0 8t0 8t0 8t0 8t0 8t0 8t0 8t0 8t0 8t0 8t0 8t0 8t-.1 8t-.1 8t-.1 8t-4.1 1.8t-6.8-4t-4-2.5t-4.2-4t-4-7.3t-3-8t-3.5-8t-2-5.6t-1.7-4t-3.4-6.4t-2.8-5.3t-2.3-4t-4-6.2t-2.3-6.1t.2-4.5t2.7-5.9t3.8-7t3.1-8t1.9-9t-1.2-8t-1.9-5.4t-1.7-4t-1.9-6.6t-.7-8t0-8t-.6-8t-.6-8t-.4-8t-.3-8t1.6-8t2.8-6.4t2.5-4t4-1.6zM719.8 2238.2q.2-1.8 1 0t-.2 1.8t-.8-1.8zM727.4 2388q.6 4 .6 8t0 8t0 8t0 8t0 8t0 5.9t-1 0t-1.1-5.9t-1.9-8t-2.9-5t-3.1-4t-2.4-7t.6-8t2.4-7.3t4.8-4t4 3.3zM718.6 2495q1.4-1 5.4-.2t4.1 5t.1 8.2t.1 8t.1 8t0 8t.1 8t.1 8t0 8t0 8t.1 8t.1 8t0 8t0 8t.1 8t0 8t-.1 8t0 8t0 8t-.1 8t-.1 8t0 8t-.1 8t-.1 8t0 8t-.1 8t-.1 8t0 8t-.1 8t-.1 6.5t-4 3.6t-6.7-2.5t-4-4.5t-3.8-4t-3.6-7.1t-.1-8t1.4-8t-1.4-7.2t-5.8-7.2t-7.3-8.8t-4-6.3t-1.8-4t-2.6-6.5t-1.9-8t-1.3-8t-3-8t-3.2-8t-1.2-8t.2-8t1.1-8t2.2-8t2.1-6t1.4-4t1.6-6t1.6-8t1.8-8t1.7-6.4t1.1-4t2.1-5.6t3.5-6.8t2.6-4t2.5-5.2t3.2-8t3.9-8t4.1-6t4.2-4t4-3zM717.6 2749.1q2.4-2.9 4 0t2.6 6.9t1.5 8t1.4 6.8t.9 8t0 9.2t.1 8t.1 8t.1 8t.1 8t0 8t0 8t.1 8t.1 8t-.1 8t-.1 8t0 8t0 8t-.1 8t-.1 8t0 8t0 8t0 8t0 8t.1 8t.1 8t0 8t.1 8t.1 8t0 8t0 8t0 8t.1 8t-4.3 4.4t-8.4.3t-8-.1t-8-.1t-8-.1t-8 0t-8-.1t-5.5-4.2t-.6-8.1t1.5-5.4t2.2-4t3.9-6.6t4.4-8t4.1-8t2.6-8t0-5.7t-1.5-4t-.9-6.3t.9-6t3.3-4t4-5.4t3.9-8t3.1-8.6t-.6-8t-3-8t-3.6-8t-4.1-7.5t-2.9-8t0-7.8t.9-8t-1.1-8.7t-2.6-8t-2.9-7.6t-1.6-8t2.8-8.4t4.1-5.1t5.2-3.7t8-5.4t5.7-4.3t1.2-5.5t-1.7-8t1.3-8t3.9-8t3.1-8t4.1-6.9z"/><path class="k20" d="M661.9 1992q2.1 0 6.1-.1t8-.2t8-.2t8-.1t8-.1t8-.1t8-.1t8-.1t4.5 4.5t.5 8.5t0 8t0 8t0 8t0 8t0 8t0 8t0 8t0 8t0 8t0 8t0 8t0 8t0 8t0 8t0 8t0 8t0 8t0 8t0 8t0 8t-.1 8t-.2 8t-.1 8t0 8t0 8t0 8t0 8t0 8t0 8t0 8t0 8t-.1 8t-.1 8t0 8t-.1 8t-.1 8t0 8t0 8t0 8t.1 8t.1 8t0 8t0 8t0 8t0 8t.1 8t.1 8t0 8t0 8t0 8t0 8t0 8t0 8t0 8t-.1 8t-.1 8t0 8t.1 8t.1 8t0 8t0 8t0 8t.1 8t.1 8t.1 8t.1 8t0 8t0 8t.1 8t.1 8t.1 8t.1 8t0 8t0 8t0 8t0 8t0 8t0 8t-.1 8t-.1 8t0 8t0 8t-.1 8t-.1 8t-.1 8t-.1 8t0 8t0 8t-.1 8t-.1 8t0 8t0 8t0 8t0 8t0 8t0 8t0 8t0 8t.1 8t.1 8t.1 8t.1 8t0 8t0 8t0 8t0 8t0 8t0 8t0 8t-.1 8t-.1 8t0 8t0 8t0 8t0 8t0 8t.1 8t.1 8t0 8t0 8t0 8t.1 8t.1 8t0 8t0 8t-4.6 4.6t-8.6.6t-8-.1t-8-.1t-8 0t-8-.1t-8-.2t-8-.2t-8-.3t-5.1-4.2t-1.5-8t.1-8t1.3-8t1.4-8t.8-8t-.4-6.7t-1.7-8t-1.9-9.3t-1.9-8t-.7-8t3-7.3t6.4-8t4.4-8.7t.4-8t-1.7-8t-3.6-8t-2.7-5.7t-1.5-4t-3.8-6.3t-3.4-8t1.5-8t3.4-8t1.8-8t.3-8t-.4-8t-1.3-8t-2.7-8t-2.5-8t-.4-6.9t4.4-7.5t6.9-9.1t3.4-8.5t1.1-8t.7-8t-1.3-8t-4.1-6.2t-6-4t-4.6-5.8t-.7-8t4.6-3.4t5.5 4t4 6.4t4.5 0t3.1-7t.6-8t-1.4-8t-1.9-8t-1.7-6.4t-1.2-4t-1.4-5.6t-1.8-8t-1-8t-.5-8t-.8-8t-1.2-7.7t-1.6-8t-.7-8.3t.4-8t.5-8t.4-6.9t.4-8t.5-9.1t.3-8t-.5-5.5t-1.3-4t-1.9-6.5t-.1-8t1.9-6.6t1.7-4t0-2.8t-2.2-4t-4-5.6t-4.6-8t-3.1-9t-6-5.7t-8.9-.5t-8 1.5t-8-1.2t-8-2.7t-8-1.9t-6.6-1.1t-6.5-4.4t-3.9-8t.1-8t.1-8t-.6-8t-1.6-7.5t.4-8t4-6.9t4.7-4t4-3.4t5.9-3.4t8-1.6t5.3-.6t4-2.1t6.7-3.2t8-2.4t8-2.8t7.5-4.1t5-6t2.7-8t3-6.1t3.9-4t4-3.3t4.4-4t4-4.4t3.1-4t4-4.3t5.6-4t6.6-5.9t3.9-8t1.4-7.1t4.2-8t4-6.3t1.5-4t.9-6.6t.8-8t.8-8t-.2-8t-1.7-7.7t-5.4-5.8t-8-3.1t-5.4-2.2t-4-2.9t-4.9-4t-4-3.9t-4.3-4t-4-4.2t-2.8-4t-1.7-6.2t.6-8t1-8t-.8-8t-1.6-8t-1.5-8t-1.7-6.6t-1.7-4t-2.9-5.4t-3.2-7t-2.2-8t-4-8t-4.9-4t-4-2.1t-5.8-4t-5.4-6.9t-.6-8t4.9-8t8.2-8t7.6-8t4.2-5.3t2.4-4t3.8-6.7t4.1-8t1.8-8t-.2-8t0-8t.2-8t0-8t-.4-8t-.7-8t-.1-8t.3-8t.5-8t.7-8t2.4-4zM559.2 2150.7q.8-1.3 4.8-2.2t8 .6t8 2t7.4 4.7t2.1 8.2t-1.7 8t-1.4 8t-5.7 6.7t-8.7 2.2t-8-2.3t-5.3-6.2t-1.3-8.4t-.5-8t.5-8t1.8-5.3z"/><path class="k10" d="M676.8 1991.9q3.2-.1 7.2-.1t8-.1t8-.1t8-.1t8-.2t8-.1t4.4 4.4t.4 8.4t0 8t0 8t0 8t0 8t0 8t0 8t0 8t-.1 8t-.1 8t0 8t0 8t.1 8t.1 8t0 8t0 8t-.1 8t0 8t.1 8t0 8t-.1 8t-.1 8t-.1 8t-.1 8t-.1 8t-.1 8t0 8t0 8t0 8t0 8t0 8t0 8t0 8t-.1 8t-.1 8t0 8t0 5.9t-.3 0t-3.8-5.9t-5.2-8t-4.2-7.8t-6-8t-8-5.7t-8.5-2.1t-7.1-2.5t-4-2.8t-3.7-4t-3.1-7.1t.8-8t2.5-8t6-7.6t8.6-3.7t5.9-4.4t0-5.1t-5.6-4t-5.5-7.2t-3.3-8t-2.5-6t-3.3-4t-4-3.3t-3.3-4t-4-5.3t-3.2-4t-4-5.1t-7.2-5.9t-7.1-4.3t-3.4-6.1t3.1-7t5.4-4t4-2.2t5.5-4t4.8-6.8t2.2-8t2.3-8t2.3-7t.9-6.4t-.8-9t-.9-9.6t-.3-8t-.3-8t-.1-8t.2-8t0-8t-.2-8t1-8t2-8t4.2-4.1zM719.3 2316.9q.7-3.1 4.7-1.7t4 7.1t.1 9.7t.1 8t0 8t0 8t0 8t0 8t.1 8t.1 8t0 8t0 8t0 8t0 8t0 8t0 8t-.1 8t-.1 8t0 8t0 8t0 8t0 8t.1 8t.1 8t.1 8t.1 8t.1 8t.1 8t0 8t0 8t.1 8t.1 8t0 8t.1 8t.1 8t0 8t0 8t0 8t0 8t-.1 8t-.1 8t0 8t0 8t-.1 8t-.1 8t-.1 8t-.1 8t0 8t0 8t-.1 8t-.1 8t-.1 8t-.1 8t0 8t0 8t0 8t0 8t.1 8t.1 8t0 8t0 8t.1 8t.1 8t0 8t.1 8t.1 8t0 8t0 8t0 8t-.1 8t-.1 8t0 8t0 8t0 8t0 8t0 8t0 8t0 8t0 8t0 8t.1 8t.1 8t0 8t0 8t.1 8t.1 8t0 8t-4.5 4.5t-8.5.5t-8-.1t-8-.1t-8 0t-8-.1t-8-.2t-8-.2t-5.8-4.2t-1.6-8.1t1.6-8t3.5-8t3.5-8t2.1-7.1t.8-8t-1.8-8.9t-2.5-8t1.1-8t2.4-5.7t1.5-4t2.1-6.3t2.5-8t1.1-8t-.8-8t-1.4-8t-2.3-8t-2.5-8t-1-8t-1.3-8t-2.1-8t-1.3-8t-.7-8t.1-8t1.3-8t2.8-8t5.6-8t4.4-6.7t.7-5.9t-.5-5.3t0-5t.9-8t.6-9.1t1.8-8t3.2-8t2.9-8t1.6-8t-1-8t-2-8t-1-8t-1.3-8t-3-8t-3.5-8t-2.8-8t-2.6-7.3t-2.7-8t-2.4-8.7t-1.9-8t-1.6-7.5t-1.3-8t-.6-8.5t.3-8t.6-7.8t.9-8t1.4-8.2t2.1-8t1.9-8t0-8t-1.2-8t1.3-7.4t4.2-8t2.3-8.6t-2.3-8t-2.8-8t4-6.2t7.8-4t6.3-5.8t3.5-8t1.7-7t3-8t1.7-9t-1.8-6.9t-2.8-4t-4-2.7t-6.9-3.1t-5.2-2.4t-3.4-4.9t-6.8-6.4t-6.2 0t-2 6.4t1.6 7t2.9 4t1.2 5t-.9 6.3t-3 4t-4 3.8t-4.9 4t-8 2.3t-9.3.3t-8 1.5t-8 1.6t-8-.4t-8-.9t-5.8-1.5t-4-3.9t-2.9-8t-.2-9.1t3.3-8t4.2-5.1t5.4-2.7t8-2.2t8 .8t6.9 3.3t4 3t2.1 0t3.4-5.1t2.3-8t3.2-8t4.7-4.5t5.4-1.4t8-3.5t5.3-6.6t3-8t2.7-5.6t2.8-4t4-5.5t3.5-4t4-3.9t6.7-4t7.1-5t4-5.7t1.9-4t3.1-6.3t2.6-8t1.9-8t3.7-8t3-7.1z"/><use href="#a" class="k5"/><path class="vl vl2" d="M693.5 1992q2.5 0 6.5-.1t8-.2t8-.1t8 0t4.2 4.2t.2 8.2t0 8t0 8t0 8t0 8t0 8t0 8t0 8t0 8t0 8t0 8t0 8t0 8t0 8t0 8t0 8t0 8t0 8t0 8t0 8t0 8t-.1 8t-.1 8t-.1 8t-4.1 1.7t-6.6-4t-4-2.5t-4.3-4t-3.9-7.2t-3-8t-3.4-8t-2.1-6t-1.7-4t-3.3-6t-3-5.7t-2.1-4t-4-6.2t-2.1-8t2.9-8.1t3.5-6.5t2.1-4t2-5.5t1-8t-1.2-8t-2-5.7t-1.8-4t-1.7-6.3t-.6-8t-.1-8t-.7-8t-.6-8t-.4-8t-.3-8t1.6-8t2.7-6.2t2.6-4t4-1.8zM718.7 2389q1.3-3 5.3-3.6t4 3t0 7.6t0 8t0 8t0 8t0 8t-.9 0t-2.6-8t-3.1-5.3t-3.3-4t-2.2-6.7t.6-8t2.2-7zM719 2495.2q1-.8 4.7 0t4.1 4.8t.4 8t.1 8t.1 8t0 8t0 8t.1 8t.1 8t0 8t.1 8t.1 8t0 8t0 8t.1 8t0 8t-.1 8t0 8t0 8t-.1 8t-.1 8t0 8t-.1 8t-.1 8t-.1 8t-.1 8t0 8t0 8t-.1 8t-.1 6.2t-4 3.3t-6.5-2.2t-4-4.4t-3.9-4t-3.5-6.9t-.1-8t1.4-8t-1.5-7.4t-5.9-7.3t-7.2-8.6t-4-6.4t-1.8-4t-2.5-6.3t-1.9-8t-1.3-8t-3-8t-3.2-8t-1.2-8t.2-8t1.1-8t2.2-8t2-5.8t1.5-4t1.7-6.2t1.5-8t1.8-8t1.6-5.9t1.2-4t2.3-6.1t3.3-6.6t2.6-4t2.7-5.4t3.1-7.7t3.9-8t4-6.1t4.4-4t4-3zM717.9 2749.4q2.1-2.6 3.5 0t2.4 6.6t1.5 8t1.6 7.4t1.1 8t0 8.6t.1 8t.1 8t.1 8t.1 8t0 8t0 8t.1 8t0 8t-.1 8t0 8t0 8t-.1 8t-.1 8t0 8t0 8t0 8t0 8t0 8t.1 8t.1 8t0 8t0 8t.1 8t.1 8t0 8t0 8t.1 8t-4.3 4.4t-8.4.3t-8-.1t-8-.1t-8-.1t-8 0t-8-.1t-5.4-4.2t-.6-8.1t3-8t4.6-8t4.5-8t4-7.9t2.6-8t0-6.2t-1.4-4t-.7-5.9t.7-5.6t3.6-4t4-4.8t1.5-4t2.5-5.6t2.8-8t-.7-8t-2.9-8t-3.6-8t-4.3-7.8t-2.9-8t0-7.1t.8-8t-1-9.1t-2.5-8t-3-7.9t-1.6-7.7t3-8.1t4-5.2t5-3.6t8-5.4t5.9-4.4t1.4-5.7t-1.5-8t1.4-8t3.6-7.8t3.1-8t4-6.8z"/><path class="vl" d="M698.6 1991.9q5.4-.1 9.4-.1t8-.1t8-.1t4.2 4.2t.2 8.2t0 8t0 8t0 8t0 8t0 8t0 8t0 8t0 8t0 8t0 8t0 8t0 8t0 8t0 8t0 8t0 8t0 8t0 8t0 8t0 8t-.1 8t-.2 8t-.1 7.4t-4 .6t-8-5.1t-6-4.6t-3.4-6.3t-2-5.9t-1.7-4t-2.4-6.1t-2.6-8t-3.7-8t-4.1-8t-4.5-8t-2.4-8t2.6-7.7t5.1-8t3.2-8.3t0-8t-1.6-8t-2.9-7.7t-2.5-8t-.9-8.3t-.1-8t-.7-8t-.7-8t-.4-8t-.3-8t1.6-8t4.6-8t8.4-4.1zM723.7 2391.8q4.3-.2 4.3 4t0 8.2t0 8t0 6.2t-.9 0t-4-5t-3.9-4t-1.4-5.2t.5-8t5.4-4.2zM715.9 2500.7q4.1-3.3 8.1-3t4 3.3t.1 7t.1 8t.1 8t.1 8t0 8t.1 8t.1 8t0 8t.1 8t.1 8t0 8t0 8t0 8t0 8t0 8t0 8t0 8t-.1 8t-.1 8t0 8t-.1 8t-.1 8t-.1 8t-.1 8t0 8t0 8t-.1 8t-4.1 5.3t-5 0t-4-3.5t-4.5-4t-2.7-5.8t-.3-8t1.3-8t-1.8-8t-6.4-8t-6.8-8t-4.2-7.3t-3.4-8t-2.2-8.7t-1.3-8t-1.8-5.7t-2.1-4t-2.5-6.3t-1.3-8t.3-8t1.1-8t2.2-8t2.9-8t2.3-8t1.5-8t1.7-7.2t2.7-8t3.3-8.8t4.1-8t4.4-8t3.4-8t4.2-8t6.8-7.3zM721.2 2756q1.6 4 1.9 8t1.4 8t2.1 8t1.2 8t.3 8t.1 8t.1 8t.1 8t0 8t0 8t0 8t0 8t0 8t0 8t0 8t-.1 8t-.1 8t0 8t0 8t0 8t0 8t0 8t.1 8t.1 8t0 8t0 8t.1 8t.1 8t0 8t0 8t0 8t-4.3 4.4t-8.3.3t-8-.1t-8-.1t-8-.1t-8-.1t-8-.2t-5-4.1t-.1-8t3.2-8t4.1-7t4.6-8t4-7.6t1.9-4t1.4-5.4t-.3-8t.6-8t3.6-5.5t3.3-4t2.1-6.5t2.6-8t2.1-8t-1.1-8t-2.9-8t-2.8-6.4t-2.1-4t-3.4-5.6t-3.2-7.5t.1-8t.6-8.5t-.7-7.2t-2.1-8t-3.1-8.8t-1.5-8t3.1-8t7-6.9t6.3-4t4-2.3t4.8-4t3.1-6.8t-.6-8t.9-7.1t3.3-8t3.8-8.9t3.6 0z"/><use href="#l" class="la" fill-rule="evenodd"/><use href="#l" class="ls" fill-rule="evenodd"/><use href="#l" class="ky"/><text x="104.6" y="2024.2">53</text><text x="342.5" y="2048">55</text><text x="443.4" y="2061.6">46</text><text x="514.3" y="2050.7">42</text><text x="600.4" y="2054.8">42</text><text x="681.8" y="2054.9">6<tspan dy="3">0</tspan></text><text x="105.8" y="2116.3">70</text><text x="194.1" y="2081.9">53</text><text x="402.1" y="2118.4">75</text><text x="439" y="2098.9">60</text><text x="529.7" y="2116.8">42</text><text x="621" y="2100.1">27</text><text x="655.1" y="2112">17</text><text x="199.8" y="2158.3">56</text><text x="385.7" y="2189.4">59</text><text x="434.1" y="2194.8">69</text><text x="497.4" y="2199.5">49</text><text x="599.2" y="2160.3">20</text><text x="648" y="2174.5">20</text><text x="125" y="2248.3">44</text><text x="197.9" y="2256.8">40</text><text x="406.5" y="2232.1">49</text><text x="459" y="2218.2">51</text><text x="536.5" y="2252.6">54</text><text x="618.6" y="2253.4">48</text><text x="638.4" y="2239.2">32</text><text x="132.3" y="2291.5">39</text><text x="163.7" y="2332.2">41</text><text x="219.9" y="2324.2">39</text><text x="287.3" y="2300.7">32</text><text x="526.8" y="2289.2">53</text><text x="638.9" y="2293.5">41</text><text x="132.4" y="2409.8">55</text><text x="202.5" y="2390.7">56</text><text x="247.4" y="2378.1">51</text><text x="471.5" y="2386">36</text><text x="585.5" y="2395.7">30</text><text x="674.4" y="2393.9">13</text><text x="110.9" y="2448.1">67</text><text x="238.8" y="2468.2">62</text><text x="392.6" y="2454">62</text><text x="476.6" y="2476.2">43</text><text x="515.8" y="2475.8">41</text><text x="579.6" y="2431.2">21</text><text x="680.9" y="2443.4">10<tspan dy="3">0</tspan></text><text x="56.3" y="2517.8">51</text><text x="169.7" y="2539.6">42</text><text x="296.1" y="2542.2">55</text><text x="447.3" y="2517.7">50</text><text x="571.2" y="2531.5">45</text><text x="668.3" y="2499.3">11<tspan dy="3">6</tspan></text><text x="96.7" y="2588.8">30</text><text x="166.8" y="2579.5">34</text><text x="269" y="2612.2">50</text><text x="400.7" y="2611.8">40</text><text x="467.1" y="2609.3">48</text><text x="567.6" y="2579.4">51</text><text x="83.6" y="2648.1">46</text><text x="266.9" y="2648.1">58</text><text x="361.2" y="2684.2">55</text><text x="483" y="2642.1">49</text><text x="656.7" y="2646">23</text><text x="179.8" y="2712.5">53</text><text x="300.9" y="2745.9">57</text><text x="372.8" y="2709.4">45</text><text x="519.5" y="2738.1">34</text><text x="619.8" y="2727.4">25</text><text x="673.4" y="2730.2">19</text><text x="83.4" y="2791.4">63</text><text x="192.5" y="2811.2">50</text><text x="299" y="2830.3">51</text><text x="528.8" y="2811.2">34</text><text x="596.1" y="2829.1">30</text><text x="639.7" y="2808.6">30</text><text x="93.2" y="2853.5">55</text><text x="183.7" y="2863.7">44</text><text x="237.4" y="2897.7">47</text><text x="399.9" y="2898.3">30</text><text x="432.1" y="2867.5">35</text><text x="497.1" y="2896.5">39</text><text x="567.4" y="2857.1">35</text><text x="681.5" y="2868.9">8<tspan dy="3">7</tspan></text><text x="120.2" y="2939.3">38</text><text x="165.6" y="2971.6">43</text><text x="332.9" y="2966.1">43</text><text x="480.5" y="2933.7">47</text><text x="500.8" y="2929.4">44</text><text x="573.7" y="2940.4">41</text><text x="645.4" y="2933.7">20</text></svg>
