<svg xmlns="http://www.w3.org/2000/svg" width="720" height="1000" viewBox="0 3000 720 1000"><style>.sj1{fill:rgba(143,199,238,.075)}.sj2{fill:rgba(143,199,238,.07)}.k20,.k10,.k5,.vl,.ky{fill:none}.k20{stroke:rgba(244,249,252,.16);stroke-width:.8;stroke-dasharray:14 4 2 4}.k10{stroke:rgba(244,249,252,.2);stroke-width:.8;stroke-dasharray:7 4}.k5{stroke:rgba(244,249,252,.3);stroke-width:1;stroke-dasharray:1 3.2;stroke-linecap:round}.vl{stroke:rgba(244,249,252,.3);stroke-width:.8}.vl2{stroke:rgba(244,249,252,.16)}.la{fill:#2B4D69}.ls{fill:url(#s)}.ky{stroke:rgba(244,249,252,.8);stroke-width:1.15;stroke-linejoin:round}.sk{fill:none;stroke:rgba(244,249,252,.62);stroke-width:1.1;stroke-linecap:round}text{font:italic 12.5px "Iowan Old Style",Georgia,serif;fill:rgba(168,208,236,.66);text-anchor:middle}tspan{font-size:9px}</style><defs><pattern id="s" width="6" height="6" patternUnits="userSpaceOnUse" patternTransform="rotate(-38)"><path d="M0 0V6" stroke="rgba(244,249,252,.11)" stroke-width="1.1"/></pattern><path id="l" d="M676.4 2991.9q3.6-.1 7.6-.2t8-.1t8 0t8-.1t8-.1t8 0t4.3 4.3t.3 8.3t.1 8t.1 8t0 8t0 8t0 8t0 8t0 8t0 8t0 8t-.1 8t-.1 8t0 8t0 8t-.1 8t-.1 8t0 8t0 8t0 8t0 8t-.1 8t-.1 8t0 8t0 8t0 8t.1 8t.1 8t-.1 8t-.1 8t-.1 8t-.1 7.5t-2.5 4t-4 .9t-5.5-.5t-6.3-.4t-4 .8t-5.7-1.8t-5.8-4.3t-4-4.4t-4.5-4t-4-4.2t-2.2-4t-1-5.6t-.5-8t1-7.7t5-7.7t8-7.4t6.1-4.3t4-2t3.1-4t0-6.3t-3.8-8t-3.1-8.6t-.4-8t.3-8t0-8t-1-8t-1.9-8t-2.9-8t-3.1-6.1t-2.5-4t-4-5.4t-5.5-8t-2.3-8.5t1.3-8t1-8t.1-8t.2-8t0-8t-1-8t-2.7-8t-2.8-8t-.7-8t.9-6.9t1.1-4t4-1.2zM725.2 3271.7q2.8-.3 2.8 4t0 8.3t-4 5.6t-5.3 0t-1.7-5.6t1.3-7.8t2.9-4t4-.5zM707.9 3423.6q4.1-.4 8.1-.3t8 3.1t4.1 8.3t.1 9.3t0 8t.1 8t.1 8t.1 8t.1 8t0 8t0 8t-.1 8t-.1 8t0 8t0 8t-.1 8t-.2 8t-.1 5.9t-4 2.5t-8-1.6t-8-5.8t-8-6.4t-8-4.6t-8-4.2t-5.9-4.1t-4-4.4t-2.9-4t-2.1-5.3t-1.4-8t.6-8t1.5-8t1.5-6.2t1.1-4t1.8-5.8t3.5-8t5-8t4.1-5.1t3.4-4t4-6.6t3.6-8t3.9-8.3t6.2-4.4zM717.4 3862.6q2.6-1.4 6.6-2.3t4 1.4t.1 6.3t.1 8t0 8t0 8t.1 8t.1 8t0 8t.1 8t0 8t-.1 8t0 8t0 8t0 8t0 8t0 8t0 8t0 8t-.1 8t-4.2 4.1t-8.1.1t-8-.1t-7.4-.1t-8-3t-5.8-4t-4-2.9t-6-4t-5.8-6.1t-3.1-8t0-8t1.2-8t1-8t.5-8t.8-7.2t3-8t4-7.1t2.7-4t2-5.7t2.7-8t5-8t4.2-8t1.9-8t2.6-8t3.1-5.2t5.4-3.1t5.4-2.8t4-2.3z"/><path id="a" d="M669.9 2991.9q2.1-.1 6.1-.2t8-.1t8-.1t8-.1t8 0t8-.1t8-.1t4.4 4.4t.4 8.4t0 8t0 8t.1 8t.1 8t0 8t0 8t0 8t0 8t-.1 8t-.1 8t0 8t0 8t-.1 8t-.1 8t0 8t0 8t0 8t0 8t-.1 8t-.1 8t0 8t0 8t0 8t0 8t0 8t0 8t0 8t0 8t-.1 8t-.1 8t0 8t-.1 8t0 8t.1 8t0 8t0 8t-.1 7t-4.1 3t-8-2t-6.3-3t-4-5t-.9-8t1.9-8t3.2-7.7t-1.9-7.5t-6.9-4.3t-8-1.7t-7-4t-4-4.8t-4.8-4t-3.4-6t-1.1-8t-.6-5.8t-.5-4t-.1-6.2t.9-8t2.3-8t2.3-8t1-8t1.1-6.4t1.8-4t3.5-5.6t3-5.6t1.2-4t1.7-6.4t1.6-8t.3-8t-1.2-8t-2-8t-2.8-8t-4-7.7t-5.7-8t-5.4-8.3t-1.5-8t1.3-8t.9-6.2t.2-4t.3-5.8t.5-8t.2-8t-.6-6.6t-2.7-8t-3.1-9.4t-.7-8t1-8t2.9-4.1zM717 3404.5q3-3.5 6 0t4 5.2t1 4t0 6.3t.1 8t.1 8t.1 8t.1 8t.1 8t.1 8t0 8t.1 8t.1 8t-.1 8t-.1 8t0 8t0 8t-.1 8t-.1 8t-.1 8t-.2 8t-.1 6.9t-4 2.1t-7.5-2.9t-8-5.6t-8.5-6.7t-5.6-4.5t-4-2.7t-6.4-3.4t-8-5t-5.4-4.6t-3.6-5.6t-3.5-8t-1.4-8t.2-8t.6-8t.7-6.1t.8-4t1.7-5.9t3.6-8t4.1-8t4-6.5t3.8-4t4-4.1t3.2-4t1.3-5.4t1-8t2.7-6.5t4.3-4t4-2.3t5.9-3.1t5-3.2t4-4.4zM721.1 3800q2.7 0 .8 1.3t-2.7 0t1.9-1.3zM718.1 3854.6q1.9-1.4 5.9-2.7t4 1.4t.1 6.7t.2 8t.1 8t0 8t0 8t0 8t.1 8t.1 8t0 8t0 8t0 8t0 8t0 8t0 8t0 8t0 8t0 8t0 8t-.1 8t-4.3 4.2t-8.2.2t-8-.1t-8-.1t-8-.1t-6.3-.1t-4-1.4t-5.7-4t-7.8-6.6t-5.2-8t-1.6-8t.4-8t1.4-8t1-8t.2-8t.4-8t1.4-8t3-8t3.9-8t3-8t2.5-7.4t3.5-8t4-7.6t4.2-8t4-7.4t3.6-4t4-2.7t6.1-2.7t6.1-2.9t4-2.7z"/></defs><use href="#a" class="sj1" fill-rule="evenodd"/><path class="sj2" fill-rule="evenodd" d="M675.4 2991.9q4.6-.1 8.6-.2t8-.1t8-.1t8-.1t8 0t8 0t4.3 4.3t.4 8.3t.1 8t0 8t0 8t0 8t0 8t0 8t0 8t0 8t0 8t0 8t0 8t-.1 8t-.1 8t0 8t-.1 8t-.1 8t0 8t0 8t0 8t0 8t-.1 8t-.1 8t.1 8t.1 8t0 8t0 8t0 8t-.1 8t-.1 8t-.1 8t-.1 8t0 8t0 8t.1 8t0 8t-.1 8t-4 4.4t-7.6-4t-3.6-8.4t1.5-8t3.6-7.4t5-4t0-3t-3.3-4t-4-3.9t-7.6-2.2t-8-1t-7.9-5.8t-8-7.7t-5.9-8t-2.2-9t-.4-8t1-8t2.2-6.6t2.6-4t2.7-5.4t1.1-8t1.3-7.1t3.6-4t3.2-4.9t1.3-8t.6-8t.6-6.9t.2-5.2t-.2-5.1t-1-6.8t-1.9-8t-2.9-8t-4.2-8t-4.1-6.1t-3.2-4t-3.9-5.9t-1.9-8t1.4-8t1.1-8t.3-8t.3-8t.1-8t-1-8t-1.9-6.2t-1.8-4t-1.7-5.8t-.7-8t1.1-8t5.5-4.1zM723 3420q4.6 4 4.8 8t.3 8t.1 8t.1 8t.1 8t.1 8t.1 8t0 8t0 8t0 8t0 8t-.1 8t-.1 8t0 8t-.1 8t-.1 8t-.1 7.6t-4.1 3.6t-8-1.9t-6-3.6t-4-3.6t-4.7-4t-4-2.9t-5.3-2.9t-6.1-3.2t-4-2.3t-5.2-4t-5.9-6.8t-3.8-8t-1.3-8t.4-8t1.1-8t1.7-8t2.1-6.4t1.5-4t2.4-5.6t3.5-6.9t2.4-4t4-4.1t6-8t3.8-9t2.6-8t4.2-6t6.6-3.1t7.2-2t7.8 3.1zM710.3 3863.4q1.7-.6 5.7-2.9t8-3.2t4.1 2.9t.1 7.8t0 8t.1 8t.1 8t0 8t0 8t.1 8t.1 8t0 8t0 8t0 8t0 8t0 8t0 8t0 8t-.1 8t-.1 8t0 8t-4.2 4.2t-8.2.1t-8-.1t-8-.1t-6.2-.1t-4-1.2t-5.3-4t-8-5.6t-5.6-4t-3.2-5.2t-2.5-8t.3-8t1.4-8t1-8t.4-8t.7-8t1.8-7.6t4.2-8t4-8.4t2.6-8t4-7.2t4.4-8t3.1-8.8t2-6.3t1.7-4t4-4.6t5.5-4t4-1.7z"/><path class="k20" d="M658.5 2991.8q5.5-.2 9.5-.3t8-.2t8-.2t8-.1t8 0t8-.1t8-.1t8 0t4.6 4.6t.6 8.6t0 8t.1 8t.1 8t0 8t0 8t0 8t0 8t0 8t0 8t-.1 8t-.1 8t0 8t0 8t-.1 8t-.1 8t0 8t0 8t0 8t0 8t0 8t-.1 8t-.1 8t0 8t.1 8t.1 8t0 8t-.1 8t-.1 8t0 8t-.1 8t-.1 8t0 8t0 8t0 8t0 8t0 8t-.1 8t-.2 8t-.1 8t-.1 8t-.1 8t-2.3 8t-2.2 8t.8 8t1.9 8t1.5 8t.4 8t.2 8t.1 8t0 8t.1 8t.1 8t0 8t.1 8t.1 8t0 8t.1 8t.1 8t.1 8t.1 8t0 8t0 8t-.1 8t-.1 8t0 8t0 8t-.1 8t-.2 8t-.1 8t-.1 8t-.1 8t-.1 8t-.1 8t0 8t0 8t0 8t-.1 8t-.1 8t0 8t0 8t0 8t0 8t.1 8t.1 8t0 8t0 8t-.1 8t-.1 8t0 8t0 8t0 8t.1 8t.1 8t0 8t0 8t0 8t.1 8t.1 8t0 8t0 8t0 8t0 8t0 8t0 8t0 8t.1 8t.2 8t.1 8t0 8t0 8t.1 8t.1 8t0 8t0 8t.1 8t0 8t-.1 8t0 8t0 8t0 8t0 8t0 8t0 8t0 8t0 8t-4.5 4.4t-8.5.4t-8 0t-8-.1t-8-.1t-8-.1t-8-.1t-8-.1t-8-.1t-8 0t-7.2-.1t-3.2-4.1t-.4-8t-.8-7.3t-.4-5.6t.1-4.7t1.2-6.4t2.3-8t2.1-8t1-8t-.3-8t-1.4-8t-2.3-8t-2-6.7t-1.3-4t0-2.9t1.2-4t4-6.1t5.4-8t3.5-8.3t2-5.3t1.7-4t1.9-6.7t.9-8t1.6-8t5.9-6.6t8.5-3.6t8-3.3t5.6-4.4t1.4-6.1t.1-8t.9-8t.9-8t.4-8t.2-8t1.3-7.9t5.2-7.6t6.3-8.1t4-7.1t2.3-4t2.2-5.3t3.2-8t3-8t.6-8t-2.7-8t-4-8t-2.5-5.5t-1.2-4t-.2-6.5t2.7-8t4.2-7.3t3.1-8t1-8.7t0-8t-.1-8t-.7-8t-.9-6.6t-1.7-8t-4-7.7t-4.9-4t-4-3.4t-3.3-4t-2.9-6.3t-2.4-6.8t-4.5-8t-8-8.9t-8.6-7.5t-8-6.7t-5.1-4.5t-3.8-5.6t-5.6-8t-4.2-6.8t-2.8-8t-2.3-9.2t-1.1-8t-1-8t-1.4-5.4t-2.1-4t-3.2-6.6t-2.6-7.7t-2.7-8t-2.8-8.3t-1.2-8t-.3-8t-.8-8t-4.9-7.6t-4.1-8t4-4.6t8-1t5.3-3.8t2.4-7t2.7-6.3t4.1-4t4-2.3t5.5-1.5t8-1.8t7.4-2.5t8-3.5t8.6-3t6.1-2.1t4-2.4t5.9-3.4t6.8-6.6t4-7.1t1.9-4t1.7-5.5t-.6-8t-5.7-4.5t-8.1-2.6t-5.1-3.5t-4-3t-6.9-2.7t-5.7-2.4t-4-3.5t-3.8-4t-3.9-5.8t-6.5-6.8t-5.8-4t-.8-5.2t1.7-6.6t.8-6.1t-.2-5.4t-1.4-5.9t-2-8t-2.4-8t-3.2-8t-2-8t-1.4-8t-2.2-6.5t-1.9-4t-.4-5.5t3.6-8t4.4-5t3.3-4t3.2-7t.4-8t-.4-8t1.1-8t3.4-8t2.6-8t.5-8t1.2-8t1.1-8t.5-8t.3-8t-1.6-8t-3.7-8t-2.4-6.6t-.4-5.3t.4-5.4t.7-6.7t-.3-8t-1.6-8t-1.6-8t-.9-8t.1-8t1.2-8t1-8t-.5-8t-1.1-8t5.1-4.2zM600.3 3404q1.1 4-1.5 4t-1.1-4t2.6 0z"/><path class="k10" d="M666.4 2991.8q5.6-.2 9.6-.3t8-.1t8-.1t8-.1t8 0t8-.1t8-.1t4.5 4.5t.5 8.5t0 8t0 8t.1 8t.1 8t0 8t0 8t0 8t0 8t-.1 8t-.1 8t0 8t0 8t-.1 8t-.1 8t0 8t0 8t0 8t0 8t-.1 8t-.1 8t0 8t0 8t0 8t0 8t0 8t0 8t0 8t0 8t-.1 8t-.1 8t0 8t0 8t0 8t0 8t0 8t0 8t-.1 8t-.2 8t-4.1 4.3t-8-.7t-8-1.2t-8-1.5t-6.9-3.1t-4-2.8t-4.3-4t-4-4t-2.4-4t-3.2-7t-2.4-6.3t-1.3-4t-2.2-5.7t-3-8t-3-8t-3-8t-.6-8t.5-8t-1.3-8t-.8-8t2.1-8t2.8-6.6t1.4-4t1.5-5.4t1.9-8t2.4-8t3.5-8t3.4-8t2.2-6.4t1.2-4t1.6-5.6t.7-8t-1.3-8t-1.9-8t-2.3-8t-3.3-7.7t-5.4-8t-4-5.9t-1.3-4t-.2-6.4t1.1-8t.7-8t0-8t.1-8t.4-8t-.5-8t-2.1-8t-1.7-8t-.5-8t0-8t5.8-4.2zM723 3386.2q5 2.2 5 4t.1 5.8t.1 8t0 8t.1 8t.1 8t0 8t.1 8t.1 8t.1 8t.1 8t0 8t.1 8t.1 8t-.1 8t-.1 8t0 8t0 8t-.1 8t-.1 8t-.1 8t-.1 8t-.1 8t-.2 8t-.1 8t-4 7.5t-5.7 0t-4-7t-5.1-8t-4-5.5t-4.8-4t-7.4-7t-8.4-7.3t-6.9-4t-4-1.2t-5.5-4t-6.4-7.5t-4.2-7.3t-3-8t-1.5-8.7t-.1-8t-1.5-8t-2.5-5.4t-2.4-4t-1.6-6.6t1.4-7.6t4.1-8t4-6.3t3.4-4t4-4.8t3.3-4t0-3.6t-1.8-4t-2-5.7t.6-8t6-5.6t8-2.8t6.2-2.4t4-2.5t5.8-3.2t5-2.7t2.6-4.8t3-4.8t5.4-2.9t7-3.2t8 1.1zM724.4 3780.6q3.6-3.4 3.6 0t.1 7.4t.1 8t0 8t-.1 8t-.1 8t0 8t0 8t.1 8t.2 8t.1 8t.1 8t.1 8t0 8t0 8t.1 8t.1 8t0 8t0 8t0 8t0 8t0 8t0 8t0 8t0 8t0 8t0 8t0 8t-.1 8t-4.4 4.3t-8.3.3t-8-.1t-8-.1t-8-.1t-8-.1t-8-.1t-8-.1t-7.7-4t-5.2-8t-2-8t-.5-8t.7-8t1.5-8t1-5.6t.5-4t.3-6.4t.1-8t.3-8t.8-8t1.8-8t2.7-8t1.3-8t-.1-8t2.4-8t4.2-6.7t3.4-4t4-4.6t6.5-6.7t6.1-4.7t4-2.1t5.9-2.4t7.5-3.2t8-5.4t6.2-8t.2-8.2t-5.7-7.5t-7.6-8t-3.2-8.5t1.8-8t3.2-5.5t5.6-3.9t4.4-2.5t4-3.5z"/><use href="#a" class="k5"/><path class="vl vl2" d="M675.4 2991.9q4.6-.1 8.6-.2t8-.1t8-.1t8-.1t8 0t8 0t4.3 4.3t.4 8.3t.1 8t0 8t0 8t0 8t0 8t0 8t0 8t0 8t0 8t0 8t0 8t-.1 8t-.1 8t0 8t-.1 8t-.1 8t0 8t0 8t0 8t0 8t-.1 8t-.1 8t.1 8t.1 8t0 8t0 8t0 8t-.1 8t-.1 8t-.1 8t-.1 8t0 7.7t-4 .5t-8-6.2t-8-2.9t-8-1t-7.7-5.6t-8-7.7t-6-8t-2.1-8.8t-.4-8t1-8t2.1-6.4t2.7-4t3-5.6t1.1-8t1-6.7t4.5-4t3.4-5.3t.3-8t.5-8t.5-5.7t.3-4t0-4.7t-1.1-8t-2-9.6t-2.9-8t-4.2-8t-4.2-6.2t-3.3-4t-3.8-5.8t-1.9-8t1.4-8t1.2-8t.3-8t.3-8t0-8t-1-8t-1.9-6.4t-1.9-4t-1.7-5.6t-.6-8t1.1-8t5.4-4.1zM718.1 3268.9q1.9-3.1 5.9-4t4 3.1t.1 8t0 8t-.1 8t-4 4.2t-7.5-4t-3.5-8.2t1.6-8t3.5-7.1zM723.4 3420q3.6 4 4.1 8t.6 8t.1 8t.1 8t.1 8t.1 8t.1 8t0 8t0 8t0 8t0 8t-.1 8t-.1 8t0 8t-.1 8t-.1 8t-.1 7.5t-4.1 3.6t-8-1.9t-5.9-3.6t-4-3.6t-4.7-4t-4-2.9t-5.4-3t-6-3.1t-4-2.3t-5.2-4t-4-3.8t-2.6-4t-3.1-6.9t-1.3-8t.5-8t1.1-8t1.7-8t2-6.1t1.5-4t2.5-5.9t3.4-6.7t2.4-4t4-4.1t4-4t2.9-5.2t3.1-8t2.7-8t4-5.9t6.4-2.9t7.9-2.1t7.5 2.9zM710.6 3863.5q1.4-.5 5.4-2.8t8-3.2t4.1 2.8t.1 7.7t0 8t0 8t.1 8t.1 8t0 8t.1 8t.1 8t0 8t0 8t0 8t0 8t0 8t0 8t0 8t-.1 8t-.1 8t0 8t-4.2 4.2t-8.2.1t-8-.1t-8-.1t-6-.1t-4-1.3t-5.3-4t-8-5.6t-5.7-4t-3.1-5.1t-2.5-8t.3-8t1.3-8t.9-8t.5-8t.8-8t1.7-7.3t4.3-8t4-8.2t2.6-8t4-7.4t3-4t2.2-5.1t2.4-8t1.8-6t1.7-4t4-4.8t5.7-4t4-1.7z"/><path class="vl" d="M675.9 2991.9q4.1-.1 8.1-.2t8-.1t8 0t8-.1t8-.1t8 0t4.3 4.3t.3 8.3t.1 8t.1 8t0 8t0 8t0 8t0 8t0 8t0 8t0 8t0 8t-.1 8t-.1 8t0 8t-.1 8t-.1 8t0 8t0 8t0 8t0 8t0 8t-.1 8t-.1 8t0 8t.1 8t.1 8t0 8t-.1 8t-.1 8t-.1 8t-.1 8t-4 6.1t-8 .4t-8-1.2t-6.9-.4t-6.7-4.9t-5.1-5.3t-4.8-4t-5.1-6.7t-2-8t-.4-8t1-8t4.6-8t4.5-6.6t2.5-4t4-3.2t6.4-3.9t1.8-6.2t-3.5-8.1t-1.5-8t0-8t.4-8t0-8t-.7-6.3t-.8-4t-1.4-5.7t-2.9-8t-2.6-5.3t-2.5-4t-4-5.6t-3.2-4t-3.2-5.1t-1.9-8t1.3-8t1.1-8t.2-8t.2-8t0-8t-1-8t-2.3-7.3t-2.8-8t-1-8.7t1.2-8t5-4.1zM719.1 3270.6q.9-1.4 4.9-2t4 1.4t0 6t0 8t0 7.1t-4 2.9t-6.3-3.1t-2.5-6.9t1.4-8t2.5-5.4zM702.9 3423.1q1.1-.9 5.1-1.6t8-1.1t5.8 1.6t4 3.6t2.2 4t.1 6.4t.1 8t.1 8t.1 8t0 8t.1 8t.1 8t0 8t0 8t-.1 8t-.1 8t0 8t0 8t-.1 8t-.2 8t-.1 6.6t-4 3t-8-1.7t-5.1-3t-4-3.6t-4.6-4t-4-2.8t-6.3-3.5t-8-4.3t-6.5-4.5t-4-4.2t-2.8-4t-2.6-6t-1.3-8t.6-8t1.3-8t1.9-8t2.6-8t3.4-8t2.7-5.4t2.6-4t4-4.5t3.7-4t3.6-6.1t2.4-5.7t1.3-4t2.9-6.3t3.1-4.9zM716.2 3861.9q3.8-2.1 7.8-2.9t4.1 2.1t.1 6.9t0 8t0 8t.1 8t.1 8t0 8t.1 8t.1 8t-.1 8t-.1 8t0 8t0 8t0 8t.1 8t0 8t-.1 8t0 8t0 8t-4.2 4.1t-8.2.1t-8-.1t-8-.1t-8-2.2t-6.2-4t-4-3t-5.8-3.8t-6.4-6.8t-2.9-8.2t.1-8t1.3-8t1-8t.5-8t.9-8t2.6-8t4.4-7.7t3.6-8t2.9-8.3t2.9-5.5t3.1-4t3.1-6.5t2-7.8t2.7-8t4-6.1t6.2-3.9t4.2-2.1t4-2.2z"/><use href="#l" class="la" fill-rule="evenodd"/><use href="#l" class="ls" fill-rule="evenodd"/><use href="#l" class="ky"/><text x="270.9" y="3026.2">47</text><text x="551.7" y="3035.4">54</text><text x="51.2" y="3057.2">37</text><text x="231" y="3078">41</text><text x="405.7" y="3059.7">79</text><text x="467.5" y="3096.2">59</text><text x="588" y="3100.3">50</text><text x="660.2" y="3104.3">22</text><text x="46.6" y="3143.8">42</text><text x="110.5" y="3148.9">43</text><text x="193" y="3130.2">36</text><text x="399.5" y="3138.4">41</text><text x="552.4" y="3161.8">43</text><text x="591" y="3173.7">34</text><text x="680.3" y="3152.8">10<tspan dy="3">5</tspan></text><text x="120.5" y="3215.2">42</text><text x="158" y="3248.7">40</text><text x="394.4" y="3234.7">53</text><text x="540.8" y="3234.3">32</text><text x="604.7" y="3226.2">29</text><text x="674" y="3247.8">7<tspan dy="3">4</tspan></text><text x="91.7" y="3269">50</text><text x="166.4" y="3274">41</text><text x="220.1" y="3269.5">41</text><text x="330" y="3315.6">44</text><text x="541" y="3315.9">21</text><text x="622" y="3307.6">25</text><text x="638.3" y="3294.4">23</text><text x="98.8" y="3373.1">46</text><text x="198.9" y="3359.6">51</text><text x="255.3" y="3343.5">31</text><text x="298.3" y="3377">36</text><text x="505.3" y="3336">50</text><text x="599.3" y="3360">27</text><text x="691.6" y="3385.9">18</text><text x="105" y="3450">49</text><text x="177" y="3445.5">33</text><text x="304" y="3415.1">34</text><text x="360.3" y="3445.3">40</text><text x="453.6" y="3446.9">57</text><text x="525.7" y="3419.9">32</text><text x="589.4" y="3412.7">21</text><text x="656.5" y="3408.6">15</text><text x="105.5" y="3501.8">53</text><text x="170" y="3493.5">50</text><text x="311.3" y="3504.7">44</text><text x="378" y="3502.2">46</text><text x="537.9" y="3483">37</text><text x="587" y="3519.2">29</text><text x="114" y="3588.1">51</text><text x="374.4" y="3595.7">52</text><text x="443.1" y="3563.8">57</text><text x="657.7" y="3587.2">29</text><text x="46.4" y="3658.9">43</text><text x="123" y="3655.6">60</text><text x="169.6" y="3668.3">74</text><text x="243.2" y="3647.4">50</text><text x="395" y="3643.7">48</text><text x="609.7" y="3653">56</text><text x="648.4" y="3663.2">46</text><text x="51.9" y="3728.5">40</text><text x="118.2" y="3739.2">36</text><text x="164.8" y="3707.7">56</text><text x="251.1" y="3686.5">55</text><text x="336.2" y="3692.2">54</text><text x="396.8" y="3691.7">51</text><text x="606.2" y="3741.9">48</text><text x="120.9" y="3788">33</text><text x="148.2" y="3799.1">28</text><text x="366.7" y="3805.8">52</text><text x="497.5" y="3794.6">59</text><text x="647.7" y="3803.7">36</text><text x="87.5" y="3845.1">42</text><text x="165" y="3858.4">41</text><text x="321.4" y="3862.8">47</text><text x="445.8" y="3869.8">54</text><text x="603.5" y="3844">42</text><text x="689.2" y="3841">18</text><text x="158.6" y="3947.7">45</text><text x="476.7" y="3936.4">57</text><text x="500.1" y="3946.9">48</text><text x="621.4" y="3926.1">23</text><text x="678.3" y="3899.3">4<tspan dy="3">6</tspan></text><text x="161.1" y="3988">48</text><text x="255.4" y="3986.9">51</text><text x="456.2" y="3979.3">66</text></svg>
